# xmcd CD database file
#
# Track frame offsets:
#	150
#	24490
#	44739
#	61093
#	74277
#	83831
#	99154
#	110398
#	133392
#	147112
#	161061
#	176340
#	190954
#	202319
#
# Disc length: 2861 seconds
#
# Revision: 11
# Processed by: cddbd v1.5.2PL0 Copyright (c) Steve Scherf et al.
# Submitted via: CDex 1.79
#
DISCID=c90b2b0e
DTITLE=Various Artist - Jazz Moods disc 1
DYEAR=1995
DGENRE=Jazz
TTITLE0=Dave Brubeck Quartet - Take Five
TTITLE1=Louis Armstrong and Ella Fitzgerald - A Foggy Day
TTITLE2=Nina Simone - My Baby Just Cares For Me
TTITLE3=Billie Holiday - Summertime
TTITLE4=Tony Bennett with the Count Basie orchestra - Jeepers Creepers
TTITLE5=Nat King Cole - Embraceable You
TTITLE6=Sarah Vaughan - Perdido
TTITLE7=Lionel Hampton with Dinah Washington - Willow Weep For Me
TTITLE8=Tony Bennett with the Count Basie orchestra - I've Grown Accustomed To Her Face
TTITLE9=Lena Horne - More Than You Know
TTITLE10=Peggy Lee - September In The Rain
TTITLE11=Nat King Cole - Stardust
TTITLE12=Louis Armstrong - Hello Dolly
TTITLE13=Nat King Cole - Unforgettable
EXTD=YEAR: 1995
EXTT0=
EXTT1=
EXTT2=
EXTT3=
EXTT4=
EXTT5=
EXTT6=
EXTT7=
EXTT8=
EXTT9=
EXTT10=
EXTT11=
EXTT12=
EXTT13=
PLAYORDER=
